<svg width="30" height="30" xmlns="http://www.w3.org/2000/svg">
 <g id="Layer_1">
  <title>Layer 1</title>
  <path d="m4.72477,26.10091c0.18349,0 -0.25327,-0.78752 0.36697,-4.0367c0.1088,-0.56994 0.27478,-1.45428 0.36697,-2.38532c0.05424,-0.54778 0,-1.83486 0,-2.20184c0,-0.91743 0,-1.46789 0,-2.01835c0,-0.36697 -0.07022,-0.74791 0,-0.91743c0.0993,-0.23974 0.18349,-0.36697 0.18349,-0.55046c0,-0.18349 0.27403,-0.1612 0.36697,-0.73394c0.05878,-0.36223 -0.12974,-1.33815 0,-1.46789c0.12974,-0.12974 0.15115,-0.27271 0.55046,-0.36697c0.89289,-0.21078 1.65138,0 2.75229,0c0.55046,0 1.65138,0 2.56881,0c1.46789,0 3.30275,0.36697 4.40367,0.36697c0.91743,0 2.53647,0.45619 2.93578,0.55046c0.17858,0.04216 0.36697,0 0.55046,0c0.36697,0 1.10092,0 2.38532,0c1.46789,0 2.43906,-0.12974 2.56881,0c0.12974,0.12974 0,0.55046 0,1.2844c0,0.18349 -0.55046,2.20183 -0.55046,2.93578c0,1.10092 0,1.46789 0,2.20183c0,0.36697 -0.36697,0.73395 -0.55046,1.10092c-0.18349,0.36697 -0.36697,0.73395 -0.55046,1.10092c-0.18349,0.36697 -0.19242,0.78699 -0.55046,1.65138c-0.25317,0.61121 -0.825,1.26748 -0.91743,2.01835c-0.06726,0.54633 0,0.73394 -0.18349,1.10092c-0.18349,0.36697 -0.36697,0.36697 -0.55046,0.36697c-0.18349,0 -0.55046,0 -1.83486,0c-1.46789,0 -2.91034,-0.51457 -5.68807,-0.91743c-2.00569,-0.29089 -3.47646,-0.64197 -4.77064,-0.73394c-1.28117,-0.09105 -1.83486,0 -2.93578,0c-0.55046,0 -0.73394,0 -0.91743,0.18349l-0.18349,0.18349l-0.18349,0l0,0.18349" id="svg_1" stroke="#000" fill="none"/>
  <path d="m8.76146,15.09174c0,0.36697 -0.01751,0.91327 -0.18349,1.65138c-0.20526,0.91281 -0.45827,1.27079 -0.55046,2.20183c-0.01808,0.18259 0,0.55046 0,0.91743c0,0.36697 0.12724,0.28279 0.36697,0.18349c0.16952,-0.07022 0.73395,0 1.10092,0c0.18349,0 0.36697,0 0.55046,0c0.36697,0 0.73394,0 1.10092,0c0.18349,0 0.36697,0 0.55046,0c0.18349,0 0.40856,0.11633 0.55046,0c0.72354,-0.59316 0.18349,-1.65138 0.18349,-2.01835c0,-0.55046 -0.08431,-0.74376 0,-1.10092c0.09426,-0.39931 0.45116,-0.67769 0.55046,-0.91743c0.07022,-0.16952 0.31323,-0.42071 0.18349,-0.55046c-0.12974,-0.12974 -0.32973,-0.23055 -0.55046,-0.36697c-0.98715,-0.61009 -2.20183,-0.36697 -2.56881,-0.55046l-0.18349,0l-0.18349,0" id="svg_2" stroke="#000" fill="none"/>
  <path d="m20.13761,16.74312c-0.18349,0 -0.57839,-0.04305 -0.91743,-0.18349c-0.95894,-0.39721 -1.74038,-0.86344 -2.20183,-1.10092c-0.9924,-0.51071 -1.46789,-0.36697 -1.65138,-0.36697c-0.18349,0 -0.09917,0.1933 -0.18349,0.55046c-0.09426,0.39931 -0.20378,0.7345 -0.18349,1.10092c0.09188,1.65899 0.09917,1.84468 0.18349,2.20183c0.18853,0.79862 0.36697,1.10092 0.36697,1.46789c0,0.36697 0,0.73395 0,1.2844c0,0.36697 0,0.73395 0,0.91743c0,0.36697 0,0.55046 0,0.73394c0,0.18349 0,0.36697 0,0.55046c0,0.18349 0,0.36697 0,0.73395c0,0.18349 0,0.73394 0.36697,1.10092l0,0.36697l0,0.36697l0,-0.18349" id="svg_3" stroke="#000" fill="none"/>
  <path d="m19.58715,17.11009c0,0.18349 0.0457,1.28554 0,2.20183c-0.09186,1.84173 -0.275,3.10949 -0.36697,4.40367c-0.02601,0.36605 0,0.73395 0,1.10092c0,0.18349 0,0.36697 0,0.55046l0,0.18349l0,0.18349l0,0.18349" id="svg_4" stroke="#000" fill="none"/>
  <path d="m6.19266,10.68807c0.18349,0 0.60738,-0.31541 1.10092,-0.91743c0.41943,-0.51162 1.47987,-1.45024 2.56881,-2.20183c1.29903,-0.8966 1.87676,-1.25724 2.38532,-1.46789c0.47947,-0.1986 0.89569,-0.95234 1.46789,-1.2844c0.35486,-0.20593 0.73394,-0.36697 1.10092,-0.73394c0.18349,-0.18349 0.31072,-0.45116 0.55046,-0.55046c0.16952,-0.07022 0.63464,-0.12724 0.73394,-0.36697c0.07022,-0.16952 0.25447,-0.93255 0.73395,-0.73394c0.16952,0.07022 0.30254,0.21941 0.73395,0.91743c0.48232,0.78041 1.18159,1.73142 2.20183,2.93578c1.00636,1.18797 1.79705,2.21788 2.20183,3.11927c0.33615,0.74856 0.73395,1.65138 0.91743,2.01835c0.18349,0.36697 0.18349,0.73394 0.36697,0.73394c0.18349,0 0.36697,0.36697 0.55046,0.36697l0.18349,0" id="svg_5" stroke="#000" fill="none"/>
  <path d="m21.05504,6.83486c0,-0.18349 -0.04216,-0.37188 0,-0.55046c0.09426,-0.39931 0.11327,-0.56443 0.18349,-0.73394c0.0993,-0.23974 0.21089,-0.27051 0.36697,-0.36697c0.34901,-0.2157 0.55046,-0.55046 0.91743,-0.55046c0.36697,0 0.36697,0.18349 0.36697,0.55046c0,0.18349 0,0.36697 0,0.55046c0,0.18349 -0.18349,0.55046 -0.36697,0.73394c-0.36697,0.36697 -0.45116,0.49421 -0.55046,0.73394c-0.07022,0.16952 0,0.36697 -0.18349,0.73394l0,0.36697l0,0.18349l0,0.18349" id="svg_6" stroke="#000" fill="none"/>
  <path d="m15.18348,6.83486c0,0.18349 0,0.36697 0,0.73394c0,0.36697 -0.09054,0.71166 -0.18349,1.2844c-0.02939,0.18112 0,0.55046 0.18349,0.55046c0.18349,0 0.39873,0.02702 0.55046,-0.18349c0.2399,-0.33284 0.36697,-0.55046 0.73395,-0.91743c0.18349,-0.18349 0.18349,-0.36697 0,-0.36697c-0.18349,0 -0.36697,-0.36697 -0.55046,-0.36697l-0.18349,-0.36697" id="svg_7" stroke="#000" fill="none"/>
 </g>
</svg>